<?xml version="1.0" standalone="no"?>
<!DOCTYPE svg PUBLIC "-//W3C//DTD SVG 20010904//EN"
 "http://www.w3.org/TR/2001/REC-SVG-20010904/DTD/svg10.dtd">
<svg version="1.0" xmlns="http://www.w3.org/2000/svg"
 width="512.000000pt" height="512.000000pt" viewBox="0 0 512.000000 512.000000"
 preserveAspectRatio="xMidYMid meet">

<g transform="translate(0.000000,512.000000) scale(0.100000,-0.100000)"
fill="#000000" stroke="none">
<path d="M2320 5109 c-131 -13 -320 -53 -431 -90 -222 -74 -362 -176 -422
-307 -21 -45 -22 -62 -27 -473 l-5 -426 -45 -35 c-66 -50 -105 -132 -104 -217
1 -79 19 -124 71 -181 49 -56 122 -90 191 -90 34 0 54 -5 56 -12 2 -7 11 -53
20 -103 68 -357 355 -658 713 -747 127 -31 323 -31 447 1 49 13 108 31 132 41
l42 18 4 -161 c3 -142 7 -168 27 -214 l23 -52 -182 -263 c-101 -145 -194 -275
-208 -291 -35 -38 -89 -38 -124 1 -14 15 -107 145 -208 290 l-182 263 22 52
c15 34 23 73 24 120 1 64 -1 70 -27 93 -21 18 -35 22 -55 18 -47 -11 -64 -37
-71 -105 -8 -72 -20 -99 -56 -127 -13 -11 -216 -102 -451 -202 -385 -165 -431
-188 -479 -232 -29 -27 -65 -68 -79 -92 -56 -95 -56 -101 -56 -849 l0 -688 25
-24 c29 -30 64 -32 98 -5 l26 21 3 702 3 703 25 48 c14 27 41 61 60 77 19 15
171 86 338 157 l302 130 0 -254 0 -254 -32 0 c-71 -1 -173 -65 -219 -138 -30
-47 -329 -929 -329 -971 0 -62 24 -117 74 -166 64 -64 101 -75 248 -75 102 0
118 2 142 21 33 26 36 79 6 109 -18 18 -33 20 -130 20 -144 0 -180 17 -180 83
0 44 289 889 312 915 38 40 79 52 185 52 116 0 171 -20 203 -72 24 -40 300
-863 300 -896 0 -13 -13 -37 -29 -53 -29 -29 -31 -29 -146 -29 -110 0 -117 -1
-140 -25 -29 -28 -30 -34 -11 -80 19 -44 36 -48 188 -43 101 3 130 8 163 25
82 44 125 114 125 205 0 72 -282 924 -328 990 -47 68 -149 128 -218 128 l-24
0 0 288 0 288 35 17 34 16 24 -32 c13 -18 97 -138 187 -267 90 -129 175 -248
189 -263 88 -97 254 -97 342 0 14 15 99 134 189 263 90 129 174 249 187 267
l24 32 34 -16 35 -17 0 -330 0 -331 -44 -18 c-67 -28 -122 -80 -157 -153 -60
-122 -38 -264 57 -357 155 -154 398 -118 503 73 32 59 36 72 36 145 0 61 -5
91 -22 127 -31 68 -95 132 -158 159 l-55 24 0 297 0 297 83 -35 c407 -174 530
-230 559 -254 18 -15 44 -49 58 -76 l25 -49 3 -702 3 -702 26 -21 c34 -27 69
-25 98 5 l25 24 0 688 c0 434 -4 704 -11 733 -23 101 -97 204 -184 255 -22 13
-220 101 -440 195 -219 94 -410 177 -423 186 -12 8 -32 29 -42 47 -18 29 -20
51 -20 232 l0 201 58 48 c162 136 278 334 318 541 9 50 18 96 20 103 2 7 22
12 56 12 69 0 142 34 191 90 52 57 70 102 71 181 1 85 -38 167 -104 217 l-45
35 -5 426 c-5 411 -6 428 -27 473 -86 187 -349 322 -743 383 -127 19 -460 27
-590 14z m435 -149 c236 -22 429 -71 577 -147 99 -51 170 -119 187 -179 6 -22
11 -132 11 -256 l0 -218 -217 0 c-234 -1 -243 -2 -262 -53 -13 -33 0 -71 28
-86 11 -6 42 -11 70 -11 l51 0 0 -85 0 -85 -215 0 c-198 0 -219 -2 -256 -21
-22 -11 -48 -33 -57 -49 -14 -24 -21 -28 -42 -22 -32 9 -108 9 -140 0 -21 -6
-28 -2 -42 22 -9 16 -35 38 -57 49 -37 19 -58 21 -256 21 l-215 0 0 85 0 85
461 2 462 3 20 27 c23 30 18 67 -13 98 -19 19 -36 20 -635 20 l-615 0 0 240
c0 267 0 268 67 332 122 117 377 197 733 231 80 8 252 6 355 -3z m-915 -1323
c0 -146 64 -257 184 -319 57 -30 236 -38 300 -14 72 27 146 118 146 178 0 13
5 40 11 61 13 50 64 75 111 56 36 -15 44 -30 53 -99 13 -100 60 -161 149 -195
35 -14 68 -16 153 -13 97 3 114 7 161 33 104 57 160 152 169 286 l6 80 41 -3
41 -3 -1 -220 c-1 -191 -4 -231 -23 -300 -69 -256 -251 -462 -490 -554 -109
-42 -194 -54 -335 -49 -101 4 -136 10 -208 35 -265 92 -457 299 -529 568 -17
65 -22 120 -26 287 -3 114 -3 214 0 222 4 11 19 16 47 16 l40 0 0 -53z m480
-47 c0 -95 -2 -102 -26 -126 -24 -24 -30 -26 -109 -23 -92 4 -121 18 -162 79
-18 26 -23 47 -23 101 l0 69 160 0 160 0 0 -100z m800 31 c0 -54 -5 -75 -22
-101 -42 -61 -71 -75 -163 -79 -79 -3 -85 -1 -109 23 -24 24 -26 31 -26 126
l0 100 160 0 160 0 0 -69z m502 48 c35 -19 58 -61 58 -108 0 -74 -48 -121
-125 -121 l-35 0 0 126 0 126 43 -7 c23 -4 50 -11 59 -16z m-2022 -109 l0
-120 -35 0 c-76 0 -125 49 -125 126 0 39 5 51 34 80 29 29 41 34 80 34 l46 0
0 -120z"/>
</g>
</svg>
